<svg width="240" height="234" viewBox="0 0 240 234" fill="none" xmlns="http://www.w3.org/2000/svg">
<g clip-path="url(#clip0_5_78)">
<path d="M42.5 1.88608e-05H197.5C203.083 -0.00524284 208.612 1.09046 213.77 3.22442C218.929 5.35838 223.616 8.48871 227.564 12.4362C231.511 16.3838 234.642 21.071 236.776 26.2297C238.91 31.3885 240.005 36.9174 240 42.5V191.5C240.005 197.083 238.91 202.612 236.776 207.77C234.642 212.929 231.511 217.616 227.564 221.564C223.616 225.511 218.929 228.642 213.77 230.776C208.612 232.91 203.083 234.005 197.5 234H42.5C36.9173 234.005 31.3884 232.91 26.2297 230.776C21.071 228.642 16.3838 225.511 12.4362 221.564C8.48869 217.616 5.35836 212.929 3.2244 207.77C1.09044 202.612 -0.00526191 197.083 -2.12727e-07 191.5V42.5C-0.00526191 36.9174 1.09044 31.3885 3.2244 26.2297C5.35836 21.071 8.48869 16.3838 12.4362 12.4362C16.3838 8.48871 21.071 5.35838 26.2297 3.22442C31.3884 1.09046 36.9173 -0.00524284 42.5 1.88608e-05Z" fill="#00005B"/>
<path d="M97 140H59.9L52.3 163.5C52.2151 163.928 51.9731 164.309 51.6215 164.568C51.27 164.827 50.8343 164.946 50.4 164.9H31.4C30.3 164.9 30 164.3 30.3 163.1L62.6 70.8C62.9 69.8 63.2 69 63.6 67.7C64.0025 65.5568 64.2033 63.3806 64.2 61.2C64.17 60.9495 64.2358 60.697 64.3842 60.493C64.5325 60.289 64.7525 60.1486 65 60.1H91C91.8 60.1 92.2 60.4 92.3 60.9L128.7 163.2C129 164.3 128.7 164.8 127.7 164.8H106.8C106.447 164.834 106.092 164.742 105.8 164.541C105.507 164.34 105.295 164.042 105.2 163.7L97 140ZM65.7 120.1H91.1C90.5 118 89.7 115.5 88.8 112.9C87.9 110.3 87 107.3 86.1 104.3C85.2 101.3 84.2 98.2 83.2 95.1C82.2 92 81.3 89.1 80.5 86.2C79.7 83.3 79 80.8 78.3 78.4H78.1C77.2013 82.7584 76.0663 87.0648 74.7 91.3C73.2 96.1 71.7 101.1 70.1 106.1C68.7 111.2 67.2 115.9 65.7 120.1Z" fill="#9999FF"/>
<path d="M140 163.4V104C140 102.2 140 100.1 139.9 97.9C139.8 95.7 139.8 93.5 139.7 91.5C139.6 89.5 139.5 87.6 139.4 86.4C139.341 86.2307 139.328 86.0485 139.363 85.8726C139.398 85.6966 139.48 85.5334 139.6 85.4C139.893 85.1969 140.243 85.0919 140.6 85.1H156.7C157.248 85.0934 157.792 85.1953 158.3 85.4C158.508 85.5104 158.688 85.6669 158.827 85.8575C158.966 86.0482 159.059 86.2679 159.1 86.5C159.3 87.1 159.6 87.9 159.8 88.7C160.096 89.7802 160.297 90.8845 160.4 92C163.517 89.2925 167.112 87.19 171 85.8C174.9 84.4889 178.986 83.8136 183.1 83.8C186.293 83.7936 189.467 84.3001 192.5 85.3C195.998 86.4371 199.189 88.3631 201.824 90.9293C204.46 93.4955 206.47 96.6332 207.7 100.1C209.3 104.2 209.9 109.6 209.9 116.1V163.4C209.9 164.4 209.5 164.8 208.6 164.8L189.8 165C189.616 165.031 189.427 165.024 189.245 164.98C189.063 164.936 188.892 164.855 188.743 164.743C188.593 164.631 188.468 164.489 188.374 164.327C188.281 164.165 188.222 163.986 188.2 163.8V118.6C188.129 115.605 187.484 112.652 186.3 109.9C185.425 107.767 183.902 105.964 181.946 104.743C179.99 103.523 177.7 102.948 175.4 103.1C172.799 103.061 170.216 103.536 167.8 104.5C165.599 105.417 163.57 106.702 161.8 108.3V163.5C161.8 164.5 161.4 164.9 160.5 164.9H141.5C141.335 164.922 141.168 164.911 141.008 164.868C140.848 164.824 140.698 164.749 140.567 164.646C140.437 164.544 140.328 164.416 140.248 164.271C140.167 164.125 140.117 163.965 140.1 163.8C139.9 163.6 139.9 163.5 140 163.4Z" fill="#9999FF"/>
</g>
<defs>
<clipPath id="clip0_5_78">
<rect width="240" height="234" fill="white"/>
</clipPath>
</defs>
</svg>
