<svg width="240" height="234" viewBox="0 0 240 234" fill="none" xmlns="http://www.w3.org/2000/svg">
<g clip-path="url(#clip0_5_76)">
<path d="M42.5 -2.12727e-07H197.5C203.083 -0.00526191 208.612 1.09044 213.77 3.2244C218.929 5.35836 223.616 8.48869 227.564 12.4362C231.511 16.3838 234.642 21.071 236.776 26.2297C238.91 31.3884 240.005 36.9173 240 42.5V191.5C240.005 197.083 238.91 202.612 236.776 207.77C234.642 212.929 231.511 217.616 227.564 221.564C223.616 225.511 218.929 228.642 213.77 230.776C208.612 232.91 203.083 234.005 197.5 234H42.5C36.9174 234.005 31.3885 232.91 26.2297 230.776C21.071 228.642 16.3838 225.511 12.4362 221.564C8.48871 217.616 5.35838 212.929 3.22442 207.77C1.09046 202.612 -0.00524284 197.083 1.88608e-05 191.5V42.5C-0.00524284 36.9173 1.09046 31.3884 3.22442 26.2297C5.35838 21.071 8.48871 16.3838 12.4362 12.4362C16.3838 8.48869 21.071 5.35836 26.2297 3.2244C31.3885 1.09044 36.9174 -0.00526191 42.5 -2.12727e-07Z" fill="#000B1D"/>
<path d="M42.4 163.9V61.7C42.4 60.7 42.7 60.2 43.4 60.1C45.2 60 48 59.9 51.8 59.9C55.6 59.9 59.6 59.8 64 59.7C68.4 59.6 72.4 59.6 76.1 59.6C84.9 59.6 91.9 60.6 97.1 62.5C101.599 63.9985 105.701 66.494 109.1 69.8C111.689 72.4034 113.61 75.594 114.7 79.1C115.618 81.9778 116.091 84.9793 116.1 88C116.171 91.2067 115.628 94.3974 114.5 97.4C113.62 99.8828 112.298 102.186 110.6 104.2C109.394 105.758 107.941 107.109 106.3 108.2C108.591 109.422 110.738 110.898 112.7 112.6C115.223 114.831 117.265 117.553 118.7 120.6C120.505 124.479 121.395 128.722 121.3 133C121.387 139.133 119.493 145.13 115.9 150.1C111.936 155.333 106.558 159.324 100.4 161.6C93.7 164.3 85.7 165.7 76.3 165.7H65.7C62.3 165.7 59.2 165.7 56.4 165.6C53.6 165.5 51.1 165.5 49 165.4C46.9 165.3 45.1 165.3 43.6 165.3C42.8 165.3 42.4 164.8 42.4 163.9ZM64.1 78.8V101.2H75C77.9 101.2 80.7 101.3 83.5 101.4C85.5149 101.401 87.5247 101.602 89.5 102C90.9063 100.78 92.0905 99.3247 93 97.7C93.9585 95.7047 94.4378 93.5132 94.4 91.3C94.5095 88.7656 93.7705 86.2671 92.3 84.2C90.7304 82.2907 88.6491 80.8685 86.3 80.1C83.0313 79.09 79.6203 78.6172 76.2 78.7H71.5C70.1 78.7 68.8 78.7 67.7 78.8C66.6 78.7 65.4 78.8 64.1 78.8ZM64.1 120.1V146.7C65.9 146.8 67.7 146.9 69.6 146.9C71.5 146.9 73.6 147 76.2 147C80.1463 147.084 84.0849 146.612 87.9 145.6C90.8232 144.886 93.4683 143.32 95.5 141.1C97.2512 138.961 98.1741 136.263 98.1 133.5C98.1635 130.815 97.4329 128.171 96 125.9C94.6 123.8 92 122.2 88.3 121.2C86.8526 120.837 85.3827 120.57 83.9 120.4C81.9397 120.2 79.9705 120.1 78 120.1H64.1Z" fill="white"/>
<path d="M186 131.3H154.3C154.682 134.33 155.742 137.235 157.4 139.8C159.167 142.495 161.714 144.588 164.7 145.8C168.755 147.467 173.118 148.251 177.5 148.1C180.986 148.103 184.466 147.802 187.9 147.2C191.128 146.618 194.28 145.679 197.3 144.4C197.8 144 198.1 144.2 198.1 145.2V160.5C198.083 160.907 198.015 161.31 197.9 161.7C197.719 161.981 197.481 162.219 197.2 162.4C193.853 163.982 190.327 165.158 186.7 165.9C182.022 166.8 177.262 167.202 172.5 167.1C164.9 167.1 158.5 165.9 153.3 163.6C148.407 161.476 144.088 158.22 140.7 154.1C137.534 150.247 135.186 145.79 133.8 141C130.87 131.024 131.009 120.396 134.2 110.5C135.795 105.493 138.341 100.841 141.7 96.8C145.007 92.8039 149.133 89.5642 153.8 87.3C159.035 84.9002 164.742 83.7043 170.5 83.8C175.832 83.6763 181.126 84.735 186 86.9C190.13 88.7608 193.736 91.6117 196.5 95.2C199.158 98.6155 201.19 102.475 202.5 106.6C203.772 110.541 204.413 114.659 204.4 118.8C204.4 121.2 204.3 123.3 204.2 125.2C204.1 127.1 203.9 128.5 203.8 129.4C203.756 129.746 203.592 130.066 203.336 130.304C203.08 130.542 202.749 130.682 202.4 130.7C201.8 130.7 200.7 130.8 199.1 130.9C197.175 131.119 195.238 131.219 193.3 131.2C191 131.2 188.6 131.3 186 131.3ZM154.3 115.6H175.4C178 115.6 179.9 115.6 181.1 115.5C181.87 115.487 182.639 115.421 183.4 115.3V114.3C183.404 113.042 183.201 111.792 182.8 110.6C181.925 107.864 180.183 105.486 177.838 103.827C175.493 102.167 172.672 101.315 169.8 101.4C167.086 101.248 164.386 101.884 162.026 103.233C159.666 104.582 157.747 106.585 156.5 109C155.383 111.053 154.638 113.287 154.3 115.6Z" fill="white"/>
</g>
<defs>
<clipPath id="clip0_5_76">
<rect width="240" height="234" fill="white"/>
</clipPath>
</defs>
</svg>
