<svg width="240" height="234" viewBox="0 0 240 234" fill="none" xmlns="http://www.w3.org/2000/svg">
<g clip-path="url(#clip0_5_75)">
<path d="M42.5 -2.12727e-07H197.5C203.083 -0.00526191 208.612 1.09044 213.77 3.2244C218.929 5.35836 223.616 8.48869 227.564 12.4362C231.511 16.3838 234.642 21.071 236.776 26.2297C238.91 31.3884 240.005 36.9173 240 42.5V191.5C240.005 197.083 238.91 202.612 236.776 207.77C234.642 212.929 231.511 217.616 227.564 221.564C223.616 225.511 218.929 228.642 213.77 230.776C208.612 232.91 203.083 234.005 197.5 234H42.5C36.9174 234.005 31.3885 232.91 26.2297 230.776C21.071 228.642 16.3838 225.511 12.4362 221.564C8.48871 217.616 5.35838 212.929 3.22442 207.77C1.09046 202.612 -0.00524284 197.083 1.88608e-05 191.5V42.5C-0.00524284 36.9173 1.09046 31.3884 3.22442 26.2297C5.35838 21.071 8.48871 16.3838 12.4362 12.4362C16.3838 8.48869 21.071 5.35836 26.2297 3.2244C31.3885 1.09044 36.9174 -0.00526191 42.5 -2.12727e-07Z" fill="#000B1D"/>
<path d="M55.1 164.2L55 62C55 61 55.3 60.5 56 60.4C57.8 60.3 60.6 60.2 64.4 60.2C68.2 60.2 71.8 60.1 76.2 60C80.6 59.9 84.6 59.9 88.3 59.9C97.1 59.9 104.3 60.5 109.5 62.5C113.999 63.9985 118.101 66.494 121.5 69.8C124.177 72.3877 126.2 75.5756 127.4 79.1C128.318 81.9778 128.791 84.9793 128.8 88C128.768 91.2255 128.124 94.4155 126.9 97.4C126.02 99.8828 124.698 102.186 123 104.2C121.794 105.758 120.341 107.109 118.7 108.2C120.991 109.422 123.138 110.898 125.1 112.6C127.623 114.831 129.665 117.553 131.1 120.6C133.013 124.378 133.974 128.566 133.9 132.8C133.932 139.017 131.969 145.081 128.3 150.1C124.336 155.333 118.958 159.324 112.8 161.6C105.132 164.621 96.9393 166.083 88.7 165.9H78.1C74.7 165.9 71.9 165.9 69 165.8C66.1 165.7 63.7 165.7 61.6 165.6C59.5 165.5 57.7 165.5 56.2 165.5C55.4 165.5 55.1 165 55.1 164.2ZM76.8 78.9L76.9 101.2H87.4C90.3 101.2 93.1 101.3 95.9 101.4C97.9149 101.401 99.9247 101.602 101.9 102C103.306 100.78 104.49 99.3247 105.4 97.7C106.476 95.8126 107.028 93.6723 107 91.5C107.003 88.8416 106.162 86.2508 104.6 84.1C103.03 82.1908 100.949 80.7685 98.6 80C95.2931 79.0159 91.848 78.5768 88.4 78.7H83.7C82.3 78.7 81.4 78.7 80.3 78.8C79.2 78.9 78.1 78.9 76.8 78.9ZM76.9 119.9V146.7C78.7 146.8 80.1 146.9 82 146.9C83.9 146.9 86 147 88.6 147C92.5463 147.084 96.4848 146.612 100.3 145.6C103.223 144.886 105.868 143.32 107.9 141.1C109.795 139.01 110.892 136.319 111 133.5C110.911 130.748 109.967 128.092 108.3 125.9C106.9 123.8 104.3 122 100.6 121C99.1525 120.637 97.6827 120.37 96.2 120.2C94.2397 120 92.2705 119.9 90.3 119.9H76.9Z" fill="white"/>
<path d="M148.2 85H165.7C166.174 85.0114 166.632 85.1723 167.009 85.4596C167.386 85.747 167.663 86.1461 167.8 86.6C168.213 87.3075 168.485 88.0887 168.6 88.9C168.8 89.9 169 91 169.1 92C169.2 93 169.3 94.7 169.3 96C172.289 92.3734 175.915 89.3233 180 87C184.3 84.6 188.9 84 194.5 84C194.665 83.9777 194.832 83.9886 194.992 84.0322C195.152 84.0758 195.302 84.1511 195.433 84.2537C195.563 84.3563 195.672 84.4841 195.752 84.6295C195.833 84.7748 195.883 84.9348 195.9 85.1V104.7C195.9 105.5 195.4 105.8 194.3 105.8C190.884 105.585 187.455 105.82 184.1 106.5C181.211 107.096 178.395 108.002 175.7 109.2C173.522 110.059 171.522 111.314 169.8 112.9V163.6C169.8 164.6 169.4 165 168.5 165H149.5C149.316 165.031 149.127 165.024 148.945 164.98C148.763 164.936 148.592 164.855 148.443 164.743C148.293 164.631 148.168 164.489 148.074 164.327C147.981 164.165 147.922 163.986 147.9 163.8V108.4C147.9 106 147.9 103.5 147.8 100.9C147.7 98.3 147.7 95.7 147.6 93.1C147.5 90.8 147.3 88.4 147 86.1C146.973 85.9818 146.971 85.8595 146.991 85.7402C147.012 85.6208 147.056 85.5068 147.121 85.4046C147.187 85.3024 147.271 85.214 147.37 85.1446C147.47 85.0752 147.582 85.026 147.7 85H148.2Z" fill="white"/>
</g>
<defs>
<clipPath id="clip0_5_75">
<rect width="240" height="234" fill="white"/>
</clipPath>
</defs>
</svg>
