<svg width="240" height="234" viewBox="0 0 240 234" fill="none" xmlns="http://www.w3.org/2000/svg">
<g clip-path="url(#clip0_5_69)">
<path d="M42.5 -1.16568e-05H197.5C203.083 -0.00527336 208.612 1.09043 213.77 3.22439C218.929 5.35835 223.616 8.48868 227.564 12.4362C231.511 16.3838 234.642 21.071 236.776 26.2297C238.91 31.3884 240.005 36.9173 240 42.5V191.5C240.005 197.083 238.91 202.612 236.776 207.77C234.642 212.929 231.511 217.616 227.564 221.564C223.616 225.511 218.929 228.642 213.77 230.776C208.612 232.91 203.083 234.005 197.5 234H42.5C36.9174 234.005 31.3885 232.91 26.2297 230.776C21.071 228.642 16.3838 225.511 12.4362 221.564C8.48871 217.616 5.35838 212.929 3.22442 207.77C1.09046 202.612 -0.00524284 197.083 1.88608e-05 191.5V42.5C-0.00524284 36.9173 1.09046 31.3884 3.22442 26.2297C5.35838 21.071 8.48871 16.3838 12.4362 12.4362C16.3838 8.48868 21.071 5.35835 26.2297 3.22439C31.3885 1.09043 36.9174 -0.00527336 42.5 -1.16568e-05Z" fill="#001E36"/>
<path d="M84.7 124.7V164.1C84.7239 164.252 84.7167 164.406 84.6788 164.555C84.6409 164.704 84.573 164.843 84.4795 164.965C84.3859 165.087 84.2685 165.188 84.1345 165.263C84.0005 165.338 83.8527 165.384 83.7 165.4H63.6C63.4193 165.435 63.2324 165.42 63.0598 165.356C62.8872 165.292 62.7356 165.181 62.6219 165.036C62.5081 164.892 62.4365 164.718 62.415 164.535C62.3935 164.352 62.4229 164.167 62.5 164V61.1C62.5 59.6 62.9 58.8 63.6 58.8H127.4C127.778 58.7607 128.16 58.8301 128.5 59C128.853 59.6782 129.025 60.4359 129 61.2L130.8 78.7C130.841 78.855 130.845 79.0178 130.81 79.1744C130.775 79.3311 130.703 79.477 130.6 79.6C130.332 79.8586 129.973 80.0021 129.6 80H84.7V104.5H124.9C125.9 104.5 126.3 104.9 126.3 105.6V123.3C126.324 123.452 126.317 123.606 126.279 123.755C126.241 123.904 126.173 124.043 126.079 124.165C125.986 124.287 125.869 124.388 125.735 124.463C125.601 124.537 125.453 124.584 125.3 124.6H125L84.7 124.7Z" fill="#31A8FF"/>
<path d="M140.5 85.4H158C158.474 85.4114 158.932 85.5723 159.309 85.8596C159.686 86.147 159.963 86.5461 160.1 87C160.513 87.7075 160.785 88.4887 160.9 89.3C161.1 90.3 161.3 91.4 161.4 92.4C161.5 93.4 161.6 94.7 161.6 96C164.603 92.4947 168.231 89.5785 172.3 87.4C176.869 84.9235 182.005 83.6826 187.2 83.8C187.365 83.7777 187.532 83.7886 187.692 83.8322C187.852 83.8758 188.002 83.9511 188.133 84.0537C188.263 84.1563 188.372 84.2841 188.452 84.4295C188.533 84.5748 188.583 84.7349 188.6 84.9V104.8C188.6 105.6 188.1 105.9 187 105.9C180.519 105.512 174.039 106.678 168.1 109.3C166.074 110.167 164.239 111.424 162.7 113V164C162.7 165 162.3 165.4 161.4 165.4H142C141.816 165.431 141.627 165.424 141.445 165.38C141.263 165.336 141.092 165.255 140.943 165.143C140.793 165.031 140.668 164.889 140.574 164.727C140.481 164.565 140.422 164.386 140.4 164.2V108.4C140.4 106 140.4 103.5 140.3 100.9C140.2 98.3 140.2 95.7 140.1 93.1C140 90.9 139.8 88.7 139.5 86.5C139.473 86.3818 139.471 86.2595 139.491 86.1402C139.512 86.0208 139.556 85.9068 139.621 85.8046C139.687 85.7024 139.771 85.614 139.87 85.5446C139.97 85.4752 140.082 85.426 140.2 85.4C140.2 85.3 140.4 85.3 140.5 85.4Z" fill="#31A8FF"/>
</g>
<defs>
<clipPath id="clip0_5_69">
<rect width="240" height="234" fill="white"/>
</clipPath>
</defs>
</svg>
