<svg width="240" height="234" viewBox="0 0 240 234" fill="none" xmlns="http://www.w3.org/2000/svg">
<g clip-path="url(#clip0_5_65)">
<path d="M42.5 -1.16568e-05H197.5C203.083 -0.00527336 208.612 1.09043 213.77 3.22439C218.929 5.35835 223.616 8.48868 227.564 12.4362C231.511 16.3838 234.642 21.071 236.776 26.2297C238.91 31.3884 240.005 36.9173 240 42.5V191.5C240.005 197.083 238.91 202.612 236.776 207.77C234.642 212.929 231.511 217.616 227.564 221.564C223.616 225.511 218.929 228.642 213.77 230.776C208.612 232.91 203.083 234.005 197.5 234H42.5C36.9174 234.005 31.3885 232.91 26.2297 230.776C21.071 228.642 16.3838 225.511 12.4362 221.564C8.48871 217.616 5.35838 212.929 3.22442 207.77C1.09046 202.612 -0.00524284 197.083 1.88608e-05 191.5V42.5C-0.00524284 36.9173 1.09046 31.3884 3.22442 26.2297C5.35838 21.071 8.48871 16.3838 12.4362 12.4362C16.3838 8.48868 21.071 5.35835 26.2297 3.22439C31.3885 1.09043 36.9174 -0.00527336 42.5 -1.16568e-05Z" fill="#001E36"/>
<path d="M84.1999 165.4H27.1C26.1 165.4 25.7 164.8 25.7 163.6V61.4C25.7 60.4 26.1 60 27 60H44.7C45.4 60 45.7 60.4 45.7 61.1V145.1H87.3C88.2 145.1 88.5 145.6 88.3 146.5L85.6999 163.9C85.686 164.13 85.6257 164.355 85.5225 164.561C85.4194 164.768 85.2757 164.951 85.0999 165.1C84.8369 165.288 84.5233 165.393 84.1999 165.4Z" fill="#31A8FF"/>
<path d="M98.5 85.4H114.3C115.2 85.4 115.8 85.9 116.2 87C116.538 87.7309 116.773 88.5049 116.9 89.3C117.1 90.3 117.2 91.4 117.3 92.4C117.4 93.4 117.4 94.7 117.4 96C120.028 92.5528 123.286 89.6347 127 87.4C131.042 84.9702 135.685 83.723 140.4 83.8C141.3 83.8 141.7 84.3 141.7 85.2V104.7C141.7 105.5 141.2 105.8 140.3 105.8C134.429 105.361 128.55 106.537 123.3 109.2C121.462 110.137 119.804 111.389 118.4 112.9V163.9C118.4 164.9 118 165.3 117.2 165.3H99.8C98.8 165.3 98.4 164.8 98.4 163.7V108.3C98.4 105.9 98.4 103.4 98.3 100.8C98.2 98.2 98.2 95.6 98.1 93C98 90.8 97.8 88.6 97.5 86.4C97.4699 86.0864 97.5399 85.7713 97.7 85.5C97.9453 85.3694 98.2301 85.3338 98.5 85.4Z" fill="#31A8FF"/>
<path d="M212.6 70.6C210.455 69.7303 208.2 69.1583 205.9 68.9C202.515 68.5008 199.109 68.3005 195.7 68.3C185.9 68.3 177.3 70.4 170.2 74.5C163.112 78.6323 157.353 84.704 153.6 92C149.7 99.4 147.8 108.2 147.8 118C147.736 123.939 148.476 129.859 150 135.6C151.369 140.486 153.531 145.114 156.4 149.3C159.064 153.147 162.381 156.497 166.2 159.2C170.035 161.952 174.338 163.985 178.9 165.2C183.656 166.515 188.566 167.188 193.5 167.2C196.946 167.219 200.388 166.985 203.8 166.5C206.576 166.19 209.299 165.517 211.9 164.5C212.397 164.259 212.808 163.87 213.076 163.387C213.344 162.904 213.458 162.35 213.4 161.8V146.9C213.441 146.628 213.417 146.351 213.33 146.09C213.243 145.829 213.096 145.593 212.9 145.4C212.668 145.216 212.376 145.125 212.081 145.144C211.785 145.162 211.507 145.289 211.3 145.5C209.037 146.324 206.689 146.894 204.3 147.2C201.409 147.483 198.505 147.616 195.6 147.6C192.962 147.585 190.339 147.215 187.8 146.5C185.131 145.789 182.573 144.712 180.2 143.3C177.738 141.801 175.597 139.83 173.9 137.5C171.985 134.886 170.499 131.983 169.5 128.9C168.367 125.106 167.828 121.159 167.9 117.2C167.786 111.687 168.913 106.218 171.2 101.2C173.267 96.8744 176.529 93.2309 180.6 90.7C185.022 88.1079 190.076 86.7925 195.2 86.9C198.352 86.8682 201.499 87.136 204.6 87.7C207.114 88.1048 209.546 88.9153 211.8 90.1C212.002 90.1989 212.225 90.2504 212.45 90.2504C212.675 90.2504 212.898 90.1989 213.1 90.1C213.315 89.9182 213.482 89.6864 213.587 89.4248C213.692 89.1633 213.73 88.88 213.7 88.6V73C213.765 72.5367 213.696 72.0644 213.501 71.6391C213.306 71.2138 212.993 70.8532 212.6 70.6Z" fill="#31A8FF"/>
</g>
<defs>
<clipPath id="clip0_5_65">
<rect width="240" height="234" fill="white"/>
</clipPath>
</defs>
</svg>
