<svg width="240" height="232" viewBox="0 0 240 232" fill="none" xmlns="http://www.w3.org/2000/svg">
<g clip-path="url(#clip0_5_63)">
<path d="M197.51 0H42.49C19.0234 0 0 19.0234 0 42.49V188.94C0 212.407 19.0234 231.43 42.49 231.43H197.51C220.977 231.43 240 212.407 240 188.94V42.49C240 19.0234 220.977 0 197.51 0Z" fill="#00005B"/>
<path d="M194.72 128.49H163.48C163.936 131.703 165.034 134.791 166.71 137.57C168.481 140.214 170.988 142.283 173.92 143.52C177.964 145.334 182.348 146.265 186.78 146.25C189.75 146.321 192.718 146.086 195.64 145.55C198.828 144.982 201.942 144.053 204.92 142.78C205.447 142.36 205.71 142.623 205.71 143.57V158.63C205.736 159.041 205.653 159.451 205.47 159.82C205.29 160.107 205.047 160.35 204.76 160.53C201.476 162.084 198.013 163.229 194.45 163.94C190.198 164.539 185.896 164.707 181.61 164.44C175.146 164.655 168.712 163.482 162.74 161C157.944 158.886 153.708 155.681 150.37 151.64C147.253 147.834 144.933 143.441 143.55 138.72C142.182 134.059 141.488 129.227 141.49 124.37C141.488 119.05 142.335 113.763 144 108.71C145.58 103.79 148.081 99.2154 151.37 95.23C154.613 91.2897 158.669 88.0968 163.26 85.87C168.424 83.4875 174.065 82.3209 179.75 82.46C185.286 82.384 190.777 83.4672 195.87 85.64C199.943 87.4836 203.508 90.287 206.26 93.81C208.847 97.1677 210.821 100.956 212.09 105C213.338 108.895 213.979 112.96 213.99 117.05C213.99 119.377 213.91 121.49 213.75 123.39C213.617 124.522 213.413 125.644 213.14 126.75C213.098 127.1 212.93 127.423 212.666 127.657C212.403 127.891 212.062 128.02 211.71 128.02C211.08 128.02 209.99 128.1 208.46 128.26C206.93 128.42 204.2 128.36 201.93 128.41C199.66 128.46 197.26 128.49 194.72 128.49ZM163.39 115.89H184.16C186.7 115.89 188.577 115.863 189.79 115.81C190.563 115.81 191.334 115.729 192.09 115.57V114.57C192.182 112.674 192.071 110.773 191.76 108.9C190.891 106.207 189.167 103.871 186.85 102.246C184.532 100.622 181.748 99.7981 178.92 99.9C176.252 99.7396 173.595 100.358 171.273 101.681C168.95 103.004 167.063 104.973 165.84 107.35C164.645 110.074 163.821 112.947 163.39 115.89Z" fill="#9999FF"/>
<path d="M35.58 61.2699C35.5874 61.127 35.6237 60.9871 35.6867 60.8586C35.7497 60.7301 35.838 60.6157 35.9464 60.5222C36.0548 60.4288 36.181 60.3583 36.3174 60.3149C36.4538 60.2715 36.5975 60.2563 36.74 60.2699H64.51C64.8744 60.2212 65.2441 60.307 65.5497 60.5114C65.8553 60.7157 66.0758 61.0246 66.17 61.3799C66.87 64.1299 67.73 66.1199 68.73 69.9699C69.73 73.8199 70.81 78.1399 72 82.7899L75.5 97.0599C76.7067 101.92 77.8867 106.65 79.04 111.25C80.1933 115.85 81.18 120.08 82 123.94C82.8 127.8 83.4667 130.997 84 133.53H84.15C84.55 131.31 85.2533 128.35 86.26 124.65C87.2667 120.95 88.4233 116.8 89.73 112.2C91.0633 107.6 92.3967 102.87 93.73 98.0099C95.0633 93.1499 96.3967 88.3399 97.73 83.5799C99.0633 78.8199 100.293 74.4066 101.42 70.3399C102.58 66.2699 103.5 64.1799 104.21 61.4299C104.261 61.1104 104.428 60.8207 104.679 60.6161C104.929 60.4115 105.247 60.3061 105.57 60.3199H132.57C132.881 60.2768 133.197 60.3573 133.449 60.5443C133.702 60.7313 133.871 61.0097 133.92 61.3199C133.92 61.3199 133.92 61.3799 133.92 61.4099L137.54 160.74C137.591 160.912 137.597 161.093 137.559 161.268C137.52 161.443 137.438 161.605 137.32 161.74C137.192 161.874 137.036 161.979 136.863 162.048C136.691 162.117 136.506 162.149 136.32 162.14H116.63C116.36 162.148 116.095 162.063 115.88 161.9C115.768 161.787 115.683 161.65 115.631 161.499C115.579 161.349 115.561 161.188 115.58 161.03C115.58 155.64 115.58 150.67 115.5 144.75C115.42 138.83 115.37 132.88 115.27 126.91C115.17 120.94 115.17 115.2 115.27 109.71C115.37 104.22 115.42 99.1399 115.42 94.4899C115.42 89.8399 115.42 85.7999 115.5 82.3599C115.58 78.9199 115.57 76.3599 115.58 74.6699H115.43C114.823 77.3366 114.02 80.7999 113.02 85.0599C112.02 89.3199 110.84 94.1299 109.48 99.4899C108.147 104.823 106.69 110.347 105.11 116.06C103.53 121.773 102.023 127.44 100.59 133.06C99.13 138.667 97.7233 143.9 96.37 148.76C95.01 153.62 93.89 157.22 92.98 160.92C92.8907 161.29 92.6771 161.618 92.375 161.849C92.0728 162.08 91.7003 162.201 91.32 162.19H74.32C73.9135 162.247 73.5006 162.147 73.1646 161.912C72.8287 161.676 72.5947 161.322 72.51 160.92C71.61 157.22 70.57 153.62 69.42 148.76C68.27 143.9 67.09 138.82 65.88 133.54C64.67 128.26 63.39 122.84 62.04 117.29C60.69 111.74 59.4 106.37 58.2 101.19C57 96.0099 55.91 91.1899 54.96 86.5999C54.01 82.0099 53.11 77.9999 52.31 74.5399H52V87.0699C52 91.9366 51.9233 97.3033 51.77 103.17C51.6167 109.037 51.4667 115.167 51.32 121.56C51.1733 127.96 50.9967 134.567 50.79 141.38C50.59 148.2 50.34 154.25 50.04 160.91C50.04 161.76 49.64 162.18 48.84 162.18H31.37C31.0205 162.198 30.6731 162.115 30.37 161.94C30.1167 161.78 30.04 161.383 30.14 160.75L35.58 61.2699Z" fill="#9999FF"/>
</g>
<defs>
<clipPath id="clip0_5_63">
<rect width="240" height="231.43" fill="white"/>
</clipPath>
</defs>
</svg>
