<svg width="240" height="234" viewBox="0 0 240 234" fill="none" xmlns="http://www.w3.org/2000/svg">
<g clip-path="url(#clip0_5_62)">
<path d="M42.5 -1.16568e-05H197.5C203.083 -0.00527336 208.612 1.09043 213.77 3.22439C218.929 5.35835 223.616 8.48868 227.564 12.4362C231.511 16.3838 234.642 21.071 236.776 26.2297C238.91 31.3884 240.005 36.9173 240 42.5V191.5C240.005 197.083 238.91 202.612 236.776 207.77C234.642 212.929 231.511 217.616 227.564 221.564C223.616 225.511 218.929 228.642 213.77 230.776C208.612 232.91 203.083 234.005 197.5 234H42.5C36.9173 234.005 31.3884 232.91 26.2297 230.776C21.071 228.642 16.3838 225.511 12.4362 221.564C8.48868 217.616 5.35835 212.929 3.22439 207.77C1.09043 202.612 -0.00527336 197.083 -1.16568e-05 191.5V42.5C-0.00527336 36.9173 1.09043 31.3884 3.22439 26.2297C5.35835 21.071 8.48868 16.3838 12.4362 12.4362C16.3838 8.48868 21.071 5.35835 26.2297 3.22439C31.3884 1.09043 36.9173 -0.00527336 42.5 -1.16568e-05Z" fill="#001E36"/>
<path d="M83.8 71.3C80.4416 67.6834 76.3036 64.8791 71.7 63.1C65.7841 60.9088 59.507 59.857 53.2 60C50.5 60 47.8 60 45 60.1C42.2 60.2 39.6 60.2 37.2 60.3C34.8 60.4 32.4 60.4 30.3 60.5C28.2 60.6 26.5 60.3 24.9 60.3C24.3 60.3 24 60.7 24 61.4V163.8C24 164.7 24.3 165.3 25 165.3H42.5C43.4 165.3 43.8 164.8 43.8 163.9V132.6C45.5 132.6 46.8 132.6 47.7 132.7C48.6 132.8 50.1 132.8 52.2 132.8C59.1512 132.886 66.0506 131.595 72.5 129C78.468 126.563 83.5337 122.335 87 116.9C90.6 111.3 92.4 104.2 92.4 95.7C92.3871 91.291 91.7129 86.909 90.4 82.7C88.9786 78.4995 86.735 74.6242 83.8 71.3ZM69.9 106.4C68.0121 108.86 65.4367 110.704 62.5 111.7C59.1537 112.838 55.6336 113.38 52.1 113.3H47.3C46.2 113.3 45.1 113.2 43.8 113.1V79.9C45 79.8 46.3 79.7 47.5 79.7C49.3 79.6 51.3 79.6 53.7 79.6C57.3343 79.5183 60.9453 80.1996 64.3 81.6C66.9234 82.8263 69.1181 84.812 70.6 87.3C72.0898 90.023 72.8154 93.0982 72.7 96.2C72.7 100.5 71.7 104 69.9 106.4Z" fill="#31A8FF"/>
<path d="M139.1 123.4C134.833 120.384 130.194 117.93 125.3 116.1C123.1 115.1 121 114 118.9 112.8C117.722 112.12 116.7 111.2 115.9 110.1C115.395 109.319 115.086 108.427 115 107.5C114.972 106.552 115.215 105.615 115.7 104.8C116.372 103.827 117.362 103.12 118.5 102.8C120.25 102.273 122.074 102.037 123.9 102.1C127.309 102.082 130.706 102.52 134 103.4C136.935 104.07 139.739 105.219 142.3 106.8C142.448 106.898 142.622 106.95 142.8 106.95C142.978 106.95 143.152 106.898 143.3 106.8C143.455 106.689 143.575 106.536 143.646 106.358C143.717 106.181 143.736 105.987 143.7 105.8V89.5C143.716 89.0974 143.683 88.6943 143.6 88.3C143.52 88.0961 143.399 87.9109 143.244 87.756C143.089 87.6011 142.904 87.4799 142.7 87.4C140.43 86.1875 137.955 85.4076 135.4 85.1C131.697 84.4984 127.951 84.1974 124.2 84.2C117.8 84.2 112.5 85.4 108.3 87.7C104.342 89.7924 101.077 92.9883 98.9 96.9C96.8691 100.606 95.8354 104.775 95.9 109C95.8915 112.508 96.6063 115.98 98 119.2C99.5735 122.496 101.903 125.375 104.8 127.6C108.681 130.629 112.996 133.057 117.6 134.8C122 136.6 125 138.2 126.4 139.5C127.035 139.967 127.561 140.567 127.941 141.258C128.321 141.948 128.546 142.714 128.6 143.5C128.618 144.352 128.405 145.193 127.982 145.932C127.559 146.672 126.943 147.283 126.2 147.7C124.6 148.7 122.1 149.1 118.7 149.1C115.121 149.001 111.566 148.498 108.1 147.6C104.254 146.624 100.602 145.001 97.3 142.8C97.1416 142.718 96.9627 142.684 96.7851 142.701C96.6076 142.719 96.439 142.788 96.3 142.9C96.1613 143.003 96.0516 143.14 95.9815 143.297C95.9114 143.455 95.8833 143.628 95.9 143.8V161.2C95.9051 161.571 96.0224 161.933 96.2366 162.236C96.4508 162.539 96.7518 162.771 97.1 162.9C99.9125 164.332 102.907 165.375 106 166C110.006 166.882 114.098 167.318 118.2 167.3C124.7 167.3 130.1 166.2 134.5 164.1C138.679 162.207 142.196 159.108 144.6 155.2C146.999 151.186 148.212 146.575 148.1 141.9C148.158 138.355 147.441 134.84 146 131.6C144.448 128.316 142.07 125.491 139.1 123.4Z" fill="#31A8FF"/>
<path d="M214.8 70.6C212.655 69.7303 210.4 69.1584 208.1 68.9C204.715 68.5009 201.309 68.3005 197.9 68.3C188.1 68.3 179.5 70.4 172.4 74.5C165.312 78.6323 159.553 84.704 155.8 92C151.9 99.4 150 108.2 150 118C149.936 123.939 150.676 129.859 152.2 135.6C153.569 140.486 155.731 145.114 158.6 149.3C161.264 153.147 164.581 156.497 168.4 159.2C172.235 161.952 176.538 163.985 181.1 165.2C185.856 166.515 190.766 167.188 195.7 167.2C199.146 167.219 202.588 166.985 206 166.5C208.776 166.19 211.499 165.517 214.1 164.5C214.597 164.259 215.008 163.87 215.276 163.387C215.545 162.904 215.658 162.35 215.6 161.8V146.9C215.641 146.628 215.617 146.351 215.53 146.09C215.443 145.829 215.296 145.593 215.1 145.4C214.868 145.216 214.576 145.125 214.281 145.144C213.986 145.162 213.707 145.289 213.5 145.5C211.237 146.324 208.889 146.894 206.5 147.2C203.609 147.483 200.705 147.616 197.8 147.6C195.162 147.585 192.539 147.215 190 146.5C187.331 145.789 184.773 144.712 182.4 143.3C179.938 141.801 177.797 139.83 176.1 137.5C174.185 134.886 172.699 131.983 171.7 128.9C170.567 125.106 170.028 121.159 170.1 117.2C169.986 111.687 171.114 106.218 173.4 101.2C175.467 96.8745 178.729 93.2309 182.8 90.7C187.222 88.1079 192.276 86.7925 197.4 86.9C200.552 86.8682 203.699 87.1361 206.8 87.7C209.314 88.1048 211.746 88.9154 214 90.1C214.202 90.199 214.425 90.2504 214.65 90.2504C214.875 90.2504 215.098 90.199 215.3 90.1C215.515 89.9182 215.682 89.6864 215.787 89.4248C215.892 89.1633 215.93 88.8801 215.9 88.6V73C215.92 72.5415 215.83 72.0848 215.639 71.6676C215.448 71.2504 215.16 70.8845 214.8 70.6Z" fill="#31A8FF"/>
</g>
<defs>
<clipPath id="clip0_5_62">
<rect width="240" height="234" fill="white"/>
</clipPath>
</defs>
</svg>
