<svg width="240" height="234" viewBox="0 0 240 234" fill="none" xmlns="http://www.w3.org/2000/svg">
<g clip-path="url(#clip0_5_59)">
<path d="M42.5 -2.12727e-07H197.5C203.083 -0.00526191 208.612 1.09044 213.77 3.2244C218.929 5.35836 223.616 8.48869 227.564 12.4362C231.511 16.3838 234.642 21.071 236.776 26.2297C238.91 31.3884 240.005 36.9173 240 42.5V191.5C240.005 197.083 238.91 202.612 236.776 207.77C234.642 212.929 231.511 217.616 227.564 221.564C223.616 225.511 218.929 228.642 213.77 230.776C208.612 232.91 203.083 234.005 197.5 234H42.5C36.9174 234.005 31.3885 232.91 26.2297 230.776C21.071 228.642 16.3838 225.511 12.4362 221.564C8.48871 217.616 5.35838 212.929 3.22442 207.77C1.09046 202.612 -0.00524284 197.083 1.88608e-05 191.5V42.5C-0.00524284 36.9173 1.09046 31.3884 3.22442 26.2297C5.35838 21.071 8.48871 16.3838 12.4362 12.4362C16.3838 8.48869 21.071 5.35836 26.2297 3.2244C31.3885 1.09044 36.9174 -0.00526191 42.5 -2.12727e-07Z" fill="#000B1D"/>
<path d="M57 163.5V61.2C57 60.5 57.3 60.1 58 60.1C59.7 60.1 61.8 60.1 64.1 60C66.4 59.9 69 59.9 71.7 59.8C74.4 59.7 77.3 59.7 80.4 59.6C83.5 59.5 86.5 59.5 89.5 59.5C97.7 59.5 104.5 60.5 110.1 62.6C115.12 64.3048 119.697 67.1059 123.5 70.8C126.722 74.0328 129.212 77.9207 130.8 82.2C132.314 86.3674 133.092 90.7662 133.1 95.2C133.1 103.8 131.1 110.9 127.1 116.5C123.081 122.092 117.471 126.344 111 128.7C103.788 131.302 96.1669 132.589 88.5 132.5C86.1 132.5 84.5 132.5 83.5 132.4C82.5 132.3 80.7 132.6 78.8 132.6V163.8C78.8223 163.965 78.8114 164.132 78.7678 164.292C78.7242 164.452 78.6489 164.602 78.5463 164.733C78.4437 164.863 78.3159 164.972 78.1705 165.052C78.0252 165.133 77.8652 165.183 77.7 165.2H77.3L58.1 164.9C57.4 164.8 57 164.4 57 163.5ZM78.8 79.7V113C80.2 113.1 81.9 112.9 83.1 112.9H88.4C92.2935 112.972 96.1741 112.432 99.9 111.3C103.088 110.363 105.936 108.522 108.1 106C110.2 103.5 111.2 100.1 111.2 95.7C111.294 92.5751 110.496 89.488 108.9 86.8C107.233 84.2036 104.78 82.2068 101.9 81.1C98.1459 79.6297 94.129 78.9488 90.1 79.1C87.5 79.1 85.2 79.1 83.3 79.2C81.7872 79.2183 80.2799 79.3857 78.8 79.7Z" fill="white"/>
<path d="M154 103.9H144.1C143.3 103.8 143 103.4 143 102.8V86.3C142.97 86.0496 143.036 85.797 143.184 85.593C143.333 85.389 143.553 85.2487 143.8 85.2H154V82.9C153.968 79.5163 154.236 76.1365 154.8 72.8C155.317 69.9999 156.19 67.2777 157.4 64.7C159.496 60.3746 162.663 56.6568 166.6 53.9C170.6 51.1 175.8 49.7 182.4 49.7C184 49.7 185.5 49.8 187.1 49.9C188.374 49.9977 189.624 50.3017 190.8 50.8C191.132 50.9121 191.418 51.1285 191.616 51.4169C191.815 51.7054 191.914 52.0503 191.9 52.4V68.3C191.9 69.1 191.5 69.3 190.6 69.1C189.805 68.9837 189.003 68.917 188.2 68.9H185.8C184.037 68.8586 182.289 69.2355 180.7 70C179.184 70.8074 178.038 72.1685 177.5 73.8C176.521 76.0789 175.979 78.5211 175.9 81V85.1H189.5C189.923 85.0496 190.35 85.1564 190.7 85.4C190.807 85.5404 190.881 85.7035 190.916 85.8768C190.95 86.0502 190.945 86.2291 190.9 86.4V102.8C190.9 103.6 190.4 103.9 189.5 103.9H175.9V163.4C175.882 163.741 175.814 164.078 175.7 164.4C175.558 164.577 175.373 164.715 175.164 164.803C174.954 164.89 174.726 164.923 174.5 164.9H155.4C154.5 164.9 154.1 164.4 154.1 163.5V103.9H154Z" fill="white"/>
</g>
<defs>
<clipPath id="clip0_5_59">
<rect width="240" height="234" fill="white"/>
</clipPath>
</defs>
</svg>
