<svg width="240" height="234" viewBox="0 0 240 234" fill="none" xmlns="http://www.w3.org/2000/svg">
<g clip-path="url(#clip0_5_55)">
<path d="M42.5 1.88608e-05H197.5C203.083 -0.00524284 208.612 1.09046 213.77 3.22442C218.929 5.35838 223.616 8.48871 227.564 12.4362C231.511 16.3838 234.642 21.071 236.776 26.2297C238.91 31.3885 240.005 36.9174 240 42.5V191.5C240.005 197.083 238.91 202.612 236.776 207.77C234.642 212.929 231.511 217.616 227.564 221.564C223.616 225.511 218.929 228.642 213.77 230.776C208.612 232.91 203.083 234.005 197.5 234H42.5C36.9174 234.005 31.3885 232.91 26.2297 230.776C21.071 228.642 16.3838 225.511 12.4362 221.564C8.48871 217.616 5.35838 212.929 3.22442 207.77C1.09046 202.612 -0.00524284 197.083 1.88608e-05 191.5V42.5C-0.00524284 36.9174 1.09046 31.3885 3.22442 26.2297C5.35838 21.071 8.48871 16.3838 12.4362 12.4362C16.3838 8.48871 21.071 5.35838 26.2297 3.22442C31.3885 1.09046 36.9174 -0.00524284 42.5 1.88608e-05Z" fill="#00005B"/>
<path d="M60.7 165.4H41.5C40.6 165.4 40.2 164.9 40.2 164V61.5C40.2 60.5 40.5 60.1 41.2 60.1C45 60 48.2 59.9 50.9 59.9L58.5999 59.7C61.0999 59.6 63.6 59.6 66.3 59.6H75C84 59.6 91.5999 60.9 97.6999 63.4C103.39 65.5814 108.3 69.4115 111.8 74.4C115.1 79.1 116.7 85 116.7 92C116.735 96.1434 115.847 100.243 114.1 104C112.392 107.638 109.979 110.901 107 113.6C103.932 116.397 100.372 118.601 96.5 120.1C97.5999 121.5 99.0999 123.6 101 126.5C102.9 129.4 105.1 132.5 107.4 136C109.7 139.5 112 143 114.3 146.6C116.6 150.2 118.7 153.4 120.6 156.4C122.5 159.4 123.9 161.8 124.9 163.5C125.06 163.673 125.179 163.879 125.248 164.104C125.317 164.329 125.335 164.567 125.3 164.8C125.309 164.89 125.297 164.981 125.263 165.066C125.23 165.15 125.176 165.225 125.107 165.284C125.039 165.343 124.956 165.384 124.868 165.404C124.78 165.425 124.688 165.423 124.6 165.4H101.2C100.727 165.39 100.257 165.323 99.8 165.2C99.4895 165.022 99.2176 164.784 99 164.5C97.7999 162.8 96.2999 160.5 94.5999 157.7C92.8999 154.9 91 151.8 89 148.4C87 145 85 141.6 83 138.3C81 135 79.3 132 77.8 129.3C77.3106 128.512 76.7036 127.804 76 127.2C75.4069 126.807 74.7112 126.599 74 126.6H62V164.1C62.0135 164.274 61.9891 164.449 61.9286 164.613C61.868 164.777 61.7727 164.926 61.6492 165.049C61.5257 165.173 61.3769 165.268 61.213 165.329C61.0491 165.389 60.8741 165.413 60.7 165.4ZM62 107.4H74.5999C78.1924 107.499 81.7759 106.992 85.1999 105.9C87.9266 105.078 90.3128 103.394 92 101.1C93.6848 98.783 94.5312 95.9618 94.4 93.1C94.4 88.2 92.6 84.6 88.9 82.4C85.2 80.2 80.4 79.1 74.4 79.1C71.8 79.1 69.3999 79.1 67.1999 79.2C64.9999 79.3 63.2 79.3 62 79.4V107.4Z" fill="#9999FF"/>
<path d="M201.6 86.5V147.5C201.6 150.2 201.6 152.6 201.7 154.7C201.8 156.8 201.9 158.6 202 160.2C202.1 161.8 202.3 163.1 202.4 164.1C202.5 165.1 202.1 165.4 201.3 165.4H184C183.608 165.439 183.214 165.353 182.873 165.156C182.532 164.959 182.262 164.659 182.1 164.3C181.9 163.5 181.7 162.7 181.5 161.8C181.334 160.978 181.267 160.138 181.3 159.3C178.057 162.204 174.191 164.325 170 165.5C166.384 166.495 162.651 167 158.9 167C155.198 167.038 151.515 166.464 148 165.3C144.758 164.193 141.838 162.304 139.5 159.8C136.922 157.033 135.007 153.716 133.9 150.1C132.488 145.502 131.813 140.709 131.9 135.9V86.7C131.876 86.5484 131.883 86.3935 131.921 86.2448C131.959 86.0961 132.027 85.9566 132.121 85.835C132.214 85.7134 132.332 85.612 132.466 85.5373C132.6 85.4625 132.747 85.4157 132.9 85.4H153C153.152 85.3761 153.306 85.3833 153.455 85.4212C153.604 85.4591 153.743 85.5269 153.865 85.6205C153.987 85.7141 154.088 85.8314 154.163 85.9654C154.238 86.0995 154.284 86.2473 154.3 86.4V133.4C154.3 137.8 155.3 141.3 157.2 143.8C159.1 146.3 162.4 147.6 166.9 147.6C169.219 147.599 171.521 147.193 173.7 146.4C175.725 145.595 177.614 144.482 179.3 143.1V86.5C179.3 85.7 179.8 85.4 180.7 85.4H200.5C200.625 85.3772 200.754 85.38 200.877 85.4083C201.001 85.4366 201.118 85.4898 201.221 85.5646C201.324 85.6393 201.411 85.7342 201.476 85.8434C201.541 85.9526 201.583 86.0739 201.6 86.2V86.5Z" fill="#9999FF"/>
</g>
<defs>
<clipPath id="clip0_5_55">
<rect width="240" height="234" fill="white"/>
</clipPath>
</defs>
</svg>
