<svg width="240" height="234" viewBox="0 0 240 234" fill="none" xmlns="http://www.w3.org/2000/svg">
<g clip-path="url(#clip0_5_54)">
<path d="M197.5 0H42.5C19.0279 0 0 19.0279 0 42.5V191.5C0 214.972 19.0279 234 42.5 234H197.5C220.972 234 240 214.972 240 191.5V42.5C240 19.0279 220.972 0 197.5 0Z" fill="#370000"/>
<path d="M76.46 167C70.9754 167.051 65.5 166.538 60.12 165.47C55.8684 164.663 51.7311 163.34 47.8 161.53C46.94 161.1 46.51 160.19 46.51 158.79V139.62C46.4969 139.451 46.5267 139.282 46.5967 139.128C46.6666 138.975 46.7744 138.841 46.91 138.74C47.0704 138.67 47.2456 138.64 47.4201 138.654C47.5946 138.668 47.7629 138.725 47.91 138.82C56.6745 144.224 66.7538 147.119 77.0501 147.19C83.1701 147.19 87.5434 146.25 90.17 144.37C91.3735 143.636 92.3714 142.609 93.0709 141.385C93.7703 140.161 94.1484 138.78 94.17 137.37C94.1959 135.646 93.7498 133.948 92.88 132.46C91.7169 130.716 90.1754 129.256 88.3701 128.19C85.5616 126.471 82.5987 125.018 79.52 123.85L71.52 120.46C64.9734 117.673 59.8467 114.697 56.14 111.53C52.7751 108.817 50.1448 105.303 48.4901 101.31C47.0788 97.5512 46.3704 93.565 46.4001 89.55C46.2912 83.8524 47.8687 78.2497 50.9342 73.4459C53.9998 68.642 58.4167 64.8513 63.6301 62.55C69.3167 59.8234 76.4 58.4567 84.88 58.45C89.7012 58.4358 94.5171 58.77 99.2901 59.45C103 59.8596 106.617 60.873 110 62.45C110.366 62.6586 110.665 62.9665 110.864 63.3381C111.062 63.7098 111.151 64.1299 111.12 64.55V82.79C111.105 82.9306 111.062 83.0668 110.993 83.1905C110.924 83.3141 110.831 83.4228 110.72 83.51C110.45 83.78 110.1 83.76 109.72 83.43C106.157 81.6027 102.368 80.2575 98.45 79.43C94.0343 78.4516 89.5228 77.9719 85 78C82.347 77.9508 79.6977 78.2227 77.1101 78.81C75.2772 79.2136 73.5145 79.8876 71.88 80.81C70.6117 81.5269 69.5717 82.5877 68.88 83.87C68.243 85.0295 67.8997 86.3273 67.88 87.65C67.8561 89.2947 68.3609 90.9037 69.32 92.24C70.6504 93.8789 72.292 95.2383 74.1501 96.24C77.1954 97.9885 80.3296 99.5773 83.5401 101L89.5401 103.26C96.62 106.16 102.147 109.243 106.12 112.51C109.729 115.324 112.601 118.972 114.49 123.14C116.119 127.041 116.943 131.232 116.91 135.46C117.028 141.41 115.252 147.244 111.84 152.12C108.267 157.034 103.384 160.846 97.75 163.12C91.7167 165.707 84.62 167 76.46 167Z" fill="#FA0F00"/>
<path d="M161 83.76C167.219 83.6083 173.406 84.7102 179.19 87C183.973 88.96 188.262 91.9551 191.75 95.77C195.033 99.4027 197.574 103.642 199.23 108.25C200.913 112.95 201.759 117.908 201.73 122.9C201.891 129.573 200.483 136.19 197.62 142.22C194.984 147.594 191.169 152.305 186.46 156C181.729 159.713 176.357 162.527 170.61 164.3C164.741 166.112 158.632 167.022 152.49 167C152.062 166.997 151.635 166.97 151.21 166.92C150.67 166.92 149.6 166.84 148.95 166.84V194.2C148.986 194.545 148.885 194.89 148.667 195.16C148.45 195.429 148.134 195.602 147.79 195.64H147.67C146.06 195.75 144.67 195.91 142.43 196.12C140.19 196.33 138.11 196.55 136.07 196.77C134.03 196.99 132.26 197.14 130.76 197.25C129.84 197.286 128.924 197.393 128.02 197.57C127.38 197.57 127.02 197.14 127.02 196.29V101.79C127.02 101.04 127.02 99.96 126.94 98.57C126.86 97.18 126.83 95.81 126.77 94.46C126.743 93.41 126.663 92.362 126.53 91.32C126.491 91.1019 126.536 90.8769 126.657 90.6911C126.777 90.5052 126.965 90.3725 127.18 90.32C129.847 89.3533 132.93 88.3867 136.43 87.42C139.92 86.42 143.73 85.6 147.87 84.84C152.205 84.0869 156.6 83.7255 161 83.76ZM159.06 102.76C157.388 102.749 155.717 102.86 154.06 103.09C152.56 103.3 150.48 103.09 148.87 103.52V147.52C149.851 147.845 150.854 148.102 151.87 148.29C152.87 148.29 153.72 148.37 154.37 148.37C158.295 148.36 162.176 147.554 165.78 146C169.537 144.401 172.75 141.747 175.03 138.36C177.503 134.807 178.74 130.14 178.74 124.36C178.74 117.487 177.02 112.173 173.58 108.42C170.14 104.667 165.31 102.777 159.09 102.75L159.06 102.76Z" fill="#FA0F00"/>
</g>
<defs>
<clipPath id="clip0_5_54">
<rect width="240" height="234" fill="white"/>
</clipPath>
</defs>
</svg>
