<svg width="240" height="234" viewBox="0 0 240 234" fill="none" xmlns="http://www.w3.org/2000/svg">
<g clip-path="url(#clip0_5_53)">
<path d="M42.5 -2.12727e-07H197.5C203.083 -0.00526191 208.612 1.09044 213.77 3.2244C218.929 5.35836 223.616 8.48869 227.564 12.4362C231.511 16.3838 234.642 21.071 236.776 26.2297C238.91 31.3884 240.005 36.9173 240 42.5V191.5C240.005 197.083 238.91 202.612 236.776 207.77C234.642 212.929 231.511 217.616 227.564 221.564C223.616 225.511 218.929 228.642 213.77 230.776C208.612 232.91 203.083 234.005 197.5 234H42.5C36.9174 234.005 31.3885 232.91 26.2297 230.776C21.071 228.642 16.3838 225.511 12.4362 221.564C8.48871 217.616 5.35838 212.929 3.22442 207.77C1.09046 202.612 -0.00524284 197.083 1.88608e-05 191.5V42.5C-0.00524284 36.9173 1.09046 31.3884 3.22442 26.2297C5.35838 21.071 8.48871 16.3838 12.4362 12.4362C16.3838 8.48869 21.071 5.35836 26.2297 3.2244C31.3885 1.09044 36.9174 -0.00526191 42.5 -2.12727e-07Z" fill="#000B1D"/>
<path d="M85 169.7C79.5962 169.697 74.205 169.178 68.9 168.15C64.6846 167.348 60.5792 166.049 56.67 164.28C56.2267 164.013 55.8724 163.621 55.6517 163.153C55.431 162.685 55.3539 162.162 55.43 161.65V142.76C55.4242 142.579 55.4632 142.4 55.5435 142.237C55.6237 142.075 55.7427 141.935 55.89 141.83C56.0388 141.745 56.2123 141.713 56.3815 141.741C56.5507 141.768 56.7055 141.852 56.82 141.98C61.1987 144.702 65.9431 146.787 70.91 148.17C75.6442 149.506 80.5408 150.179 85.46 150.17C91.5 150.17 95.8333 149.24 98.46 147.38C99.649 146.641 100.629 145.609 101.306 144.384C101.984 143.159 102.336 141.78 102.33 140.38C102.344 138.699 101.916 137.044 101.09 135.58C99.9008 133.889 98.3715 132.465 96.6 131.4C93.8658 129.704 90.9596 128.303 87.93 127.22L80.03 123.81C74.584 121.614 69.4819 118.647 64.88 115C61.539 112.403 58.9672 108.946 57.44 105C55.9939 101.301 55.2577 97.3619 55.27 93.39C55.1808 87.9397 56.6295 82.5746 59.45 77.91C62.4908 73.0581 66.9138 69.2272 72.15 66.91C77.72 64.28 84.85 62.91 93.21 62.91C97.9756 62.8958 102.737 63.2065 107.46 63.84C111.096 64.2878 114.647 65.2648 118 66.74C118.353 66.9346 118.642 67.2266 118.834 67.5812C119.025 67.9359 119.111 68.3381 119.08 68.74V86.74C119.059 86.8729 119.007 86.9987 118.926 87.1067C118.846 87.2147 118.741 87.3016 118.62 87.36C118.471 87.445 118.298 87.4765 118.129 87.4492C117.959 87.4219 117.805 87.3375 117.69 87.21C114.19 85.4571 110.499 84.1149 106.69 83.21C102.335 82.5302 97.9371 82.1692 93.53 82.13C90.9269 82.0306 88.3225 82.2897 85.79 82.9C84.0051 83.3357 82.2865 84.0083 80.68 84.9C79.4814 85.6338 78.4738 86.6414 77.74 87.84C77.1421 88.9897 76.8235 90.2642 76.81 91.56C76.7796 93.15 77.2636 94.7073 78.19 96C79.5185 97.629 81.1482 98.987 82.99 100C85.9183 101.772 88.9732 103.327 92.13 104.65L98 106.84C105 109.78 110.39 112.72 114.26 115.98C118.13 119.24 120.92 122.64 122.47 126.51C124.04 130.395 124.828 134.55 124.79 138.74C124.87 144.597 123.122 150.333 119.79 155.15C116.301 159.963 111.549 163.718 106.06 166C100.18 168.48 93.06 169.72 85 169.72V169.7ZM178.37 152.51V165.51C178.37 166.59 177.91 167.37 177.13 167.51C175.13 168.13 172.95 168.59 170.78 169.06C168.278 169.523 165.734 169.731 163.19 169.68C156.19 169.68 150.96 167.82 146.93 164.26C143.06 160.7 141.05 154.81 141.05 146.92V107.77H131.6C130.67 107.77 130.36 107.31 130.36 106.38V90.58C130.36 89.65 130.82 89.34 131.75 89.34H141.2C141.35 87.48 141.35 85.47 141.66 83.15C141.81 80.83 141.97 78.35 142.28 76.03C142.43 73.71 142.74 71.69 142.9 70.15C143.05 69.84 143.05 69.53 143.36 69.22C143.585 68.9767 143.844 68.7678 144.13 68.6L163 66.27C163.114 66.1935 163.248 66.1526 163.385 66.1526C163.522 66.1526 163.656 66.1935 163.77 66.27C163.99 66.5282 164.101 66.8616 164.08 67.2C163.93 69.68 163.77 72.93 163.62 77.11C163.47 81.29 163.47 85.32 163.31 89.34H178.02C178.64 89.34 178.95 89.8 178.95 90.58V106.68C178.95 107.3 178.8 107.61 178.18 107.76H163.18V141.67C163.18 145.23 163.8 147.86 165.04 149.41C166.28 150.96 168.45 151.73 171.7 151.73C172.579 151.762 173.46 151.712 174.33 151.58C175.26 151.58 176.03 151.43 176.96 151.43C177.108 151.341 177.282 151.307 177.452 151.335C177.623 151.362 177.778 151.449 177.89 151.58C178.055 151.671 178.189 151.809 178.274 151.976C178.36 152.144 178.393 152.333 178.37 152.52V152.51Z" fill="white"/>
</g>
<defs>
<clipPath id="clip0_5_53">
<rect width="240" height="234" fill="white"/>
</clipPath>
</defs>
</svg>
