<svg width="240" height="234" viewBox="0 0 240 234" fill="none" xmlns="http://www.w3.org/2000/svg">
<g clip-path="url(#clip0_5_82)">
<path d="M42.5 -2.12727e-07H197.5C203.083 -0.00526191 208.612 1.09044 213.77 3.2244C218.929 5.35836 223.616 8.48869 227.564 12.4362C231.511 16.3838 234.642 21.071 236.776 26.2297C238.91 31.3884 240.005 36.9173 240 42.5V191.5C240.005 197.083 238.91 202.612 236.776 207.77C234.642 212.929 231.511 217.616 227.564 221.564C223.616 225.511 218.929 228.642 213.77 230.776C208.612 232.91 203.083 234.005 197.5 234H42.5C36.9173 234.005 31.3884 232.91 26.2297 230.776C21.071 228.642 16.3838 225.511 12.4362 221.564C8.48869 217.616 5.35836 212.929 3.2244 207.77C1.09044 202.612 -0.00526191 197.083 -2.12727e-07 191.5V42.5C-0.00526191 36.9173 1.09044 31.3884 3.2244 26.2297C5.35836 21.071 8.48869 16.3838 12.4362 12.4362C16.3838 8.48869 21.071 5.35836 26.2297 3.2244C31.3884 1.09044 36.9173 -0.00526191 42.5 -2.12727e-07Z" fill="#000B1D"/>
<path d="M193 135.5C181.9 123.7 151.2 128.5 144 129.7C135.972 121.673 129.076 112.589 123.5 102.7C127.6 91.3191 129.96 79.3848 130.5 67.3C130.5 56.5 126.2 44.9 114.2 44.9C112.156 44.9551 110.159 45.5246 108.394 46.5558C106.629 47.5871 105.152 49.0468 104.1 50.8C99 59.6 101 77.8 109.2 96.2C104.4 109.7 97.5 129.2 88.4 145C76.1 149.9 50 161.9 47.5 175.2C47.1206 177.127 47.2533 179.121 47.885 180.981C48.5167 182.841 49.6253 184.502 51.1 185.8C54.0176 188.375 57.8108 189.735 61.7 189.6C77.4 189.6 93.1 167.8 103.7 149.1C115.913 144.933 128.413 141.658 141.1 139.3C157.7 153.8 172.5 156 180 156C190.2 156 194 151.6 195.4 147.9C196.138 145.806 196.305 143.554 195.883 141.374C195.461 139.195 194.466 137.167 193 135.5ZM182.2 143.1C181.7 146 178 148.9 171.1 147.4C163.107 145.396 155.661 141.638 149.3 136.4C154.7 135.5 167.3 134.3 176.2 136C179.4 136.6 183.1 138.4 182.2 143.1ZM110.6 54.6C110.928 53.9493 111.427 53.4005 112.044 53.0128C112.661 52.6251 113.372 52.4132 114.1 52.4C117.9 52.4 118.7 57 118.7 60.8C118.078 69.8642 116.4 78.8248 113.7 87.5C107.3 70.5 108.2 58.7 110.6 54.6ZM109.7 137.7C113.405 129.941 116.709 121.998 119.6 113.9C123.596 120.225 128.147 126.182 133.2 131.7C125.264 133.276 117.42 135.279 109.7 137.7ZM84.6 154.9C74.5 171.1 64.6 181.3 58.8 181.3C57.8557 181.308 56.9375 180.99 56.2 180.4C55.6611 179.965 55.2541 179.388 55.0245 178.735C54.7949 178.081 54.7518 177.377 54.9 176.7C56 170.9 67.5 162.5 84.6 154.9Z" fill="white"/>
</g>
<defs>
<clipPath id="clip0_5_82">
<rect width="240" height="234" fill="white"/>
</clipPath>
</defs>
</svg>
