<svg width="240" height="234" viewBox="0 0 240 234" fill="none" xmlns="http://www.w3.org/2000/svg">
<g clip-path="url(#clip0_5_80)">
<path d="M42.5 1.88608e-05H197.5C203.083 -0.00524284 208.612 1.09046 213.77 3.22442C218.929 5.35838 223.616 8.48871 227.564 12.4362C231.511 16.3838 234.642 21.071 236.776 26.2297C238.91 31.3885 240.005 36.9174 240 42.5V191.5C240.005 197.083 238.91 202.612 236.776 207.77C234.642 212.929 231.511 217.616 227.564 221.564C223.616 225.511 218.929 228.642 213.77 230.776C208.612 232.91 203.083 234.005 197.5 234H42.5C36.9174 234.005 31.3885 232.91 26.2297 230.776C21.071 228.642 16.3838 225.511 12.4362 221.564C8.48871 217.616 5.35838 212.929 3.22442 207.77C1.09046 202.612 -0.00524284 197.083 1.88608e-05 191.5V42.5C-0.00524284 36.9174 1.09046 31.3885 3.22442 26.2297C5.35838 21.071 8.48871 16.3838 12.4362 12.4362C16.3838 8.48871 21.071 5.35838 26.2297 3.22442C31.3885 1.09046 36.9174 -0.00524284 42.5 1.88608e-05Z" fill="#013301"/>
<path d="M108 140H70.8001L63.2001 163.6C63.1152 164.028 62.8731 164.409 62.5216 164.668C62.17 164.927 61.7344 165.046 61.3001 165H42.5001C41.4001 165 41.1001 164.4 41.4001 163.2L73.6001 70.8C73.9001 69.8 74.2001 68.9 74.6001 67.7C75.0025 65.5568 75.2034 63.3806 75.2001 61.2C75.1701 60.9495 75.2359 60.697 75.3843 60.493C75.5326 60.289 75.7526 60.1486 76.0001 60.1H101.9C102.7 60.1 103.1 60.4 103.2 60.9L139.7 163.4C140 164.5 139.7 165 138.7 165H117.8C117.447 165.034 117.092 164.942 116.8 164.741C116.507 164.54 116.295 164.242 116.2 163.9L108 140ZM76.6001 120.1H102C101.4 118 100.6 115.5 99.7001 112.9C98.8001 110.3 97.9001 107.3 97.0001 104.3C96.1001 101.3 95.1001 98.2 94.1001 95.1C93.1001 92 92.2001 89.1 91.4001 86.2C90.6001 83.3 89.9001 80.8 89.2001 78.4H89.0001C88.1014 82.7584 86.9664 87.0648 85.6001 91.3C84.1001 96.1 82.6001 101.1 81.0001 106.1C79.6001 111.2 78.1001 115.9 76.6001 120.1Z" fill="#33FF66"/>
<path d="M150.4 85H167.9C168.374 85.0114 168.832 85.1723 169.209 85.4596C169.586 85.7469 169.863 86.146 170 86.6C170.371 87.431 170.64 88.3041 170.8 89.2C171 90.2 171.2 91.3 171.3 92.3C171.4 93.3 171.5 94.6 171.5 95.9C174.503 92.3947 178.131 89.4784 182.2 87.3C186.553 84.8285 191.495 83.5843 196.5 83.7C196.664 83.6777 196.832 83.6886 196.992 83.7322C197.152 83.7758 197.302 83.8511 197.433 83.9537C197.563 84.0563 197.672 84.1841 197.752 84.3294C197.832 84.4748 197.883 84.6348 197.9 84.8V104.7C197.9 105.5 197.4 105.8 196.3 105.8C192.95 105.584 189.587 105.82 186.3 106.5C183.411 107.096 180.595 108.002 177.9 109.2C175.6 110.3 173.1 111.5 171.9 112.9V163.6C171.9 164.6 171.5 165 170.6 165H151.8C151.615 165.031 151.427 165.024 151.245 164.98C151.063 164.936 150.892 164.855 150.743 164.743C150.593 164.631 150.468 164.489 150.374 164.327C150.281 164.165 150.222 163.986 150.2 163.8V108.4C150.2 106 150.2 103.5 150.1 100.9C150 98.3 150 95.7 149.9 93.1C149.8 90.8 149.6 88.4 149.3 86.1C149.273 85.9818 149.27 85.8595 149.291 85.7402C149.312 85.6208 149.356 85.5068 149.421 85.4046C149.486 85.3024 149.571 85.214 149.67 85.1446C149.77 85.0751 149.882 85.026 150 85H150.4Z" fill="#33FF66"/>
</g>
<defs>
<clipPath id="clip0_5_80">
<rect width="240" height="234" fill="white"/>
</clipPath>
</defs>
</svg>
