<svg width="240" height="234" viewBox="0 0 240 234" fill="none" xmlns="http://www.w3.org/2000/svg">
<g clip-path="url(#clip0_5_74)">
<path d="M42.5 1.88608e-05H197.5C203.083 -0.00524284 208.612 1.09046 213.77 3.22442C218.929 5.35838 223.616 8.48871 227.564 12.4362C231.511 16.3838 234.642 21.071 236.776 26.2297C238.91 31.3885 240.005 36.9174 240 42.5V191.5C240.005 197.083 238.91 202.612 236.776 207.77C234.642 212.929 231.511 217.616 227.564 221.564C223.616 225.511 218.929 228.642 213.77 230.776C208.612 232.91 203.083 234.005 197.5 234H42.5C36.9174 234.005 31.3885 232.91 26.2297 230.776C21.071 228.642 16.3838 225.511 12.4362 221.564C8.48871 217.616 5.35838 212.929 3.22442 207.77C1.09046 202.612 -0.00524284 197.083 1.88608e-05 191.5V42.5C-0.00524284 36.9174 1.09046 31.3885 3.22442 26.2297C5.35838 21.071 8.48871 16.3838 12.4362 12.4362C16.3838 8.48871 21.071 5.35838 26.2297 3.22442C31.3885 1.09046 36.9174 -0.00524284 42.5 1.88608e-05Z" fill="#00005B"/>
<path d="M114.8 145.3V161.9C114.86 162.372 114.766 162.851 114.532 163.266C114.297 163.68 113.935 164.008 113.5 164.2C110.425 165.285 107.239 166.023 104 166.4C99.8175 166.882 95.6101 167.116 91.4 167.1C85.3976 167.121 79.4167 166.381 73.6 164.9C68.1604 163.497 62.9672 161.272 58.2 158.3C53.6194 155.4 49.5902 151.709 46.3 147.4C42.8588 142.9 40.251 137.819 38.6 132.4C36.7109 126.144 35.8001 119.634 35.9 113.1C35.9 102.3 38.3 92.7 43 84.5C47.7025 76.2911 54.6844 69.6218 63.1 65.3C72.7188 60.3843 83.3996 57.9116 94.2 58.1C98.4 58.1 102.5 58.3 106.7 58.7C109.592 59.0352 112.441 59.672 115.2 60.6C115.486 60.8205 115.71 61.1115 115.851 61.4445C115.991 61.7775 116.042 62.1411 116 62.5V80.6C116 81.6 115.6 81.9 114.9 81.6C111.853 80.1843 108.621 79.2079 105.3 78.7C101.395 78.0984 97.4506 77.7975 93.5 77.8C87.0464 77.6605 80.6685 79.2119 75 82.3C69.9612 85.0715 65.8292 89.2382 63.1 94.3C60.2214 99.8919 58.7781 106.112 58.9 112.4C58.8138 116.882 59.4901 121.345 60.9 125.6C62.1068 129.202 64.0095 132.532 66.5 135.4C68.7363 138.075 71.4487 140.313 74.5 142C77.5303 143.611 80.7574 144.821 84.1 145.6C87.3276 146.497 90.6516 147 94 147.1C97.6397 147.133 101.279 146.966 104.9 146.6C107.879 146.222 110.8 145.484 113.6 144.4C114 144.1 114.3 144 114.6 144.2C114.708 144.359 114.781 144.54 114.815 144.729C114.85 144.918 114.845 145.113 114.8 145.3Z" fill="#9999FF"/>
<path d="M151.8 107.3V163.7C151.8 164.6 151.4 165 150.7 165H130.6C130.435 165.022 130.268 165.011 130.108 164.968C129.948 164.924 129.798 164.849 129.667 164.746C129.537 164.644 129.428 164.516 129.348 164.371C129.267 164.225 129.217 164.065 129.2 163.9V52.4C129.2 51.7 129.6 51.3 130.5 51.3H150.8C150.925 51.2772 151.054 51.2801 151.177 51.3084C151.301 51.3366 151.418 51.3898 151.521 51.4646C151.624 51.5394 151.711 51.6342 151.776 51.7435C151.841 51.8527 151.883 51.974 151.9 52.1V52.4L152 90.4C154.908 88.4793 158.029 86.9021 161.3 85.7C164.7 84.5 168.6 84.2 173.1 84.2C176.285 84.2094 179.451 84.681 182.5 85.6C185.736 86.5182 188.737 88.121 191.3 90.3C194 92.7 195.9 96 197.5 100.1C199.1 104.2 199.9 109.6 199.9 116.1V163.5C199.9 164.5 199.5 164.9 198.6 164.9H179.7C179.516 164.931 179.327 164.924 179.145 164.88C178.963 164.836 178.792 164.755 178.643 164.643C178.493 164.531 178.368 164.389 178.274 164.227C178.181 164.065 178.122 163.886 178.1 163.7V118.3C178.205 115.393 177.693 112.496 176.6 109.8C175.697 107.746 174.243 105.981 172.4 104.7C170.156 103.405 167.588 102.781 165 102.9C162.597 102.881 160.204 103.218 157.9 103.9C155.722 104.752 153.67 105.896 151.8 107.3Z" fill="#9999FF"/>
</g>
<defs>
<clipPath id="clip0_5_74">
<rect width="240" height="234" fill="white"/>
</clipPath>
</defs>
</svg>
