<svg width="240" height="234" viewBox="0 0 240 234" fill="none" xmlns="http://www.w3.org/2000/svg">
<g clip-path="url(#clip0_5_72)">
<path d="M42.5 1.88608e-05H197.5C203.083 -0.00524284 208.612 1.09046 213.77 3.22442C218.929 5.35838 223.616 8.48871 227.564 12.4362C231.511 16.3838 234.642 21.071 236.776 26.2297C238.91 31.3885 240.005 36.9174 240 42.5V191.5C240.005 197.083 238.91 202.612 236.776 207.77C234.642 212.929 231.511 217.616 227.564 221.564C223.616 225.511 218.929 228.642 213.77 230.776C208.612 232.91 203.083 234.005 197.5 234H42.5C36.9174 234.005 31.3885 232.91 26.2297 230.776C21.071 228.642 16.3838 225.511 12.4362 221.564C8.48871 217.616 5.35838 212.929 3.22442 207.77C1.09046 202.612 -0.00524284 197.083 1.88608e-05 191.5V42.5C-0.00524284 36.9174 1.09046 31.3885 3.22442 26.2297C5.35838 21.071 8.48871 16.3838 12.4362 12.4362C16.3838 8.48871 21.071 5.35838 26.2297 3.22442C31.3885 1.09046 36.9174 -0.00524284 42.5 1.88608e-05Z" fill="#013301"/>
<path d="M35.0001 163.8V61.4C34.9751 61.0821 35.0767 60.7671 35.2826 60.5237C35.4886 60.2803 35.7824 60.128 36.1 60.1H36.2001C37.8001 60 40.2 59.9 43.3 59.9C46.4 59.9 50.1 59.8 54.2001 59.7C58.3001 59.6 62.8 59.6 67.6 59.6C80.5 59.6 91.2001 61.8 99.6001 66.2C107.625 70.199 114.276 76.501 118.7 84.3C123.048 92.4469 125.251 101.567 125.1 110.8C125.21 117.774 124.093 124.713 121.8 131.3C119.773 136.943 116.722 142.164 112.8 146.7C109.055 150.926 104.668 154.537 99.8001 157.4C94.973 160.254 89.7496 162.377 84.3001 163.7C78.9664 165.017 73.4938 165.688 68 165.7H56C51.8 165.7 47.8001 165.7 44.2001 165.6C40.6001 165.5 37.8001 165.5 36.0001 165.4C35.3001 165.4 35.0001 164.8 35.0001 163.8ZM57.2001 79.4V146.1C58.2677 146.078 59.3358 146.112 60.4001 146.2C61.4001 146.3 62.4001 146.3 63.4001 146.4C64.4001 146.5 65.6001 146.5 66.9001 146.5C71.7657 146.591 76.6085 145.813 81.2 144.2C85.3372 142.802 89.0998 140.476 92.2 137.4C95.3551 134.268 97.7795 130.478 99.3001 126.3C101.027 121.491 101.874 116.409 101.8 111.3C101.907 106.49 101.092 101.704 99.4001 97.2C97.9228 93.3142 95.52 89.8473 92.4001 87.1C89.2653 84.3041 85.5391 82.253 81.5 81.1C76.989 79.7697 72.3027 79.1292 67.6 79.2C65.5 79.2 63.7001 79.2 62.2001 79.3C60.5329 79.2361 58.8634 79.2695 57.2001 79.4Z" fill="#33FF66"/>
<path d="M134.8 163.9V104C134.8 102.2 134.8 100.1 134.7 97.9C134.6 95.7 134.6 93.5 134.5 91.5C134.4 89.5 134.3 87.9 134.2 86.7C134.141 86.5307 134.128 86.3485 134.163 86.1726C134.198 85.9966 134.28 85.8334 134.4 85.7C134.693 85.4969 135.043 85.3919 135.4 85.4H152C152.548 85.3934 153.092 85.4953 153.6 85.7C153.808 85.8104 153.989 85.9669 154.127 86.1575C154.266 86.3482 154.359 86.5679 154.4 86.8C154.6 87.4 154.9 88.2 155.1 89C155.396 89.9784 155.597 90.9831 155.7 92C158.817 89.2925 162.412 87.19 166.3 85.8C170.2 84.4889 174.286 83.8136 178.4 83.8C181.593 83.7936 184.767 84.3001 187.8 85.3C191.298 86.4371 194.489 88.3631 197.124 90.9293C199.76 93.4955 201.77 96.6332 203 100.1C204.6 104.2 205.4 109.6 205.4 116.1V163.9C205.4 164.9 205 165.3 204.1 165.3H184.6C184.416 165.331 184.227 165.324 184.045 165.28C183.863 165.236 183.692 165.155 183.543 165.043C183.393 164.931 183.268 164.789 183.174 164.627C183.081 164.465 183.022 164.286 183 164.1V118C183.089 115.2 182.613 112.411 181.6 109.8C180.725 107.667 179.202 105.864 177.246 104.643C175.29 103.423 173 102.848 170.7 103C168.099 102.961 165.516 103.436 163.1 104.4C160.899 105.317 158.87 106.602 157.1 108.2V163.9C157.1 164.9 156.7 165.3 155.8 165.3H136.2C136.035 165.322 135.868 165.311 135.708 165.268C135.548 165.224 135.398 165.149 135.267 165.046C135.137 164.944 135.028 164.816 134.948 164.671C134.868 164.525 134.817 164.365 134.8 164.2V163.9Z" fill="#33FF66"/>
</g>
<defs>
<clipPath id="clip0_5_72">
<rect width="240" height="234" fill="white"/>
</clipPath>
</defs>
</svg>
