<svg width="240" height="234" viewBox="0 0 240 234" fill="none" xmlns="http://www.w3.org/2000/svg">
<g clip-path="url(#clip0_5_70)">
<path d="M42.5 -2.12727e-07H197.5C203.083 -0.00526191 208.612 1.09044 213.77 3.2244C218.929 5.35836 223.616 8.48869 227.564 12.4362C231.511 16.3838 234.642 21.071 236.776 26.2297C238.91 31.3884 240.005 36.9173 240 42.5V191.5C240.005 197.083 238.91 202.612 236.776 207.77C234.642 212.929 231.511 217.616 227.564 221.564C223.616 225.511 218.929 228.642 213.77 230.776C208.612 232.91 203.083 234.005 197.5 234H42.5C36.9173 234.005 31.3884 232.91 26.2297 230.776C21.071 228.642 16.3838 225.511 12.4362 221.564C8.48868 217.616 5.35835 212.929 3.22439 207.77C1.09043 202.612 -0.00527336 197.083 -1.16568e-05 191.5V42.5C-0.00527336 36.9173 1.09043 31.3884 3.22439 26.2297C5.35835 21.071 8.48868 16.3838 12.4362 12.4362C16.3838 8.48869 21.071 5.35836 26.2297 3.2244C31.3884 1.09044 36.9173 -0.00526191 42.5 -2.12727e-07Z" fill="#000B1D"/>
<path d="M132.27 98C126.67 116.78 121.99 134.91 116.39 152.62C113.21 162.62 109.73 172.15 105.34 178.21C100.49 185.02 91.41 191.54 80.51 191.54C72.79 191.54 65.22 187.91 65.22 179.88C65.22 174.88 70.37 170.19 74.46 170.19C75.3224 170.156 76.1771 170.365 76.9266 170.793C77.6762 171.22 78.2907 171.85 78.7 172.61C82.49 179.42 86.12 183.36 87.79 183.36C89.46 183.36 90.79 181.09 93.54 171.25L113.34 98H99.11C98.05 94.82 99.56 90.88 101.38 90.13H115.61C118.34 81.35 121.53 72.52 126.08 64.5C132.89 52.23 143.8 42.5 158.79 42.5C170.15 42.5 174.84 47.95 174.84 54.92C174.69 62.34 168.18 66.12 165.15 66.12C162.73 66.12 161.52 64.3 160.76 61.73C158.19 52.04 154.85 49.16 152.89 49.16C150.93 49.16 147.89 52.79 144.56 60.36C140.17 69.9 137.27 80.09 134.56 90.08H151.8C152.86 92.2 151.95 96.74 149.38 97.95L132.27 98Z" fill="white"/>
</g>
<defs>
<clipPath id="clip0_5_70">
<rect width="240" height="234" fill="white"/>
</clipPath>
</defs>
</svg>
