<svg width="240" height="234" viewBox="0 0 240 234" fill="none" xmlns="http://www.w3.org/2000/svg">
<g clip-path="url(#clip0_5_61)">
<path d="M42.5 -1.16568e-05H197.5C203.083 -0.00527336 208.612 1.09043 213.77 3.22439C218.929 5.35835 223.616 8.48868 227.564 12.4362C231.511 16.3838 234.642 21.071 236.776 26.2297C238.91 31.3884 240.005 36.9173 240 42.5V191.5C240.005 197.083 238.91 202.612 236.776 207.77C234.642 212.929 231.511 217.616 227.564 221.564C223.616 225.511 218.929 228.642 213.77 230.776C208.612 232.91 203.083 234.005 197.5 234H42.5C36.9174 234.005 31.3885 232.91 26.2297 230.776C21.071 228.642 16.3838 225.511 12.4362 221.564C8.48871 217.616 5.35838 212.929 3.22442 207.77C1.09046 202.612 -0.00524284 197.083 1.88608e-05 191.5V42.5C-0.00524284 36.9173 1.09046 31.3884 3.22442 26.2297C5.35838 21.071 8.48871 16.3838 12.4362 12.4362C16.3838 8.48868 21.071 5.35835 26.2297 3.22439C31.3885 1.09043 36.9174 -0.00527336 42.5 -1.16568e-05Z" fill="#001E36"/>
<path d="M81 71.4C77.6416 67.7834 73.5036 64.9791 68.9 63.2C62.9841 61.0088 56.707 59.957 50.4 60.1C47.7 60.1 45 60.1 42.2 60.2C39.4 60.3 36.8 60.3 34.4 60.4C32 60.5 29.6 60.5 27.5 60.6C25.4 60.7 23.5 60.7 22 60.7C21.4 60.7 21.1 61.1 21.1 61.8V164.1C21.1 165 21.4 165.4 22.1 165.4H39.8C40.7 165.4 41.1 164.9 41.1 164V132.8C42.8 132.8 44.1 132.8 45 132.9C45.9 133 47.4 133 49.5 133C56.4512 133.086 63.3506 131.795 69.8 129.2C75.7679 126.763 80.8337 122.535 84.3 117.1C87.9 111.5 89.7 104.4 89.7 95.9C89.6871 91.4911 89.0129 87.109 87.7 82.9C86.267 78.6532 83.9878 74.741 81 71.4ZM67.1 106.5C65.212 108.96 62.6367 110.804 59.7 111.8C56.3537 112.938 52.8336 113.48 49.3 113.4H44.5C43.4 113.4 42.3 113.3 41 113.2V80C42.2 79.9 43.5 79.8 44.7 79.8C46.5 79.7 48.5 79.7 50.9 79.7C54.5343 79.6183 58.1453 80.2996 61.5 81.7C64.1234 82.9263 66.3181 84.912 67.8 87.4C69.2897 90.123 70.0154 93.1983 69.9 96.3C69.9 100.6 69 104 67.1 106.5Z" fill="#31A8FF"/>
<path d="M136.3 122.9C132.033 119.884 127.395 117.43 122.5 115.6C120.3 114.6 118.2 113.5 116.1 112.3C114.922 111.62 113.9 110.7 113.1 109.6C112.595 108.819 112.286 107.927 112.2 107C112.172 106.052 112.415 105.115 112.9 104.3C113.572 103.327 114.562 102.62 115.7 102.3C117.45 101.773 119.274 101.537 121.1 101.6C124.509 101.582 127.906 102.02 131.2 102.9C134.071 103.571 136.81 104.721 139.3 106.3C139.448 106.398 139.622 106.45 139.8 106.45C139.978 106.45 140.152 106.398 140.3 106.3C140.455 106.189 140.575 106.036 140.646 105.858C140.717 105.681 140.736 105.487 140.7 105.3V89.1C140.716 88.6974 140.683 88.2943 140.6 87.9C140.52 87.6961 140.399 87.5109 140.244 87.356C140.089 87.2011 139.904 87.0799 139.7 87C137.53 85.8043 135.156 85.0242 132.7 84.7C128.997 84.0984 125.251 83.7975 121.5 83.8C115.1 83.8 109.8 85 105.6 87.3C101.642 89.3924 98.377 92.5883 96.2 96.5C94.1691 100.206 93.1354 104.375 93.2 108.6C93.1915 112.108 93.9064 115.58 95.3 118.8C96.8735 122.096 99.2034 124.975 102.1 127.2C105.981 130.229 110.296 132.657 114.9 134.4C119.3 136.2 122.3 137.8 123.7 139.1C124.335 139.567 124.861 140.167 125.241 140.858C125.621 141.548 125.846 142.314 125.9 143.1C125.918 143.952 125.705 144.793 125.282 145.532C124.859 146.272 124.243 146.883 123.5 147.3C121.9 148.3 119.4 148.7 116 148.7C112.421 148.601 108.866 148.098 105.4 147.2C101.705 146.185 98.2185 144.526 95.1 142.3C94.99 142.209 94.8563 142.151 94.7146 142.133C94.5729 142.116 94.429 142.139 94.3 142.2C94.1613 142.303 94.0516 142.44 93.9815 142.597C93.9114 142.755 93.8833 142.928 93.9 143.1V160.5C93.8759 160.878 93.9565 161.255 94.1329 161.591C94.3093 161.926 94.5747 162.206 94.9 162.4C97.4785 163.902 100.28 164.982 103.2 165.6C107.206 166.482 111.298 166.918 115.4 166.9C121.9 166.9 127.3 165.8 131.7 163.7C135.879 161.807 139.396 158.708 141.8 154.8C144.199 150.786 145.412 146.175 145.3 141.5C145.358 137.955 144.641 134.44 143.2 131.2C141.685 127.865 139.302 124.998 136.3 122.9Z" fill="#31A8FF"/>
<path d="M218.7 162.7L193.1 116.6L217 73.2C217.197 72.9879 217.322 72.7194 217.358 72.4323C217.394 72.1451 217.339 71.854 217.2 71.6C217.08 71.3149 216.865 71.0799 216.592 70.9342C216.319 70.7886 216.004 70.7412 215.7 70.8H198.7C198.168 70.7419 197.633 70.8845 197.2 71.2C196.853 71.5222 196.61 71.9397 196.5 72.4C194.8 76.2 192.9 79.5 191.1 83.3C189.3 87.1 187.4 90.9 185.7 94.6C184.1 97.9 182.5 101.4 181 104.9C179.5 101.5 177.9 98.1 176.2 94.8C174.2 91 172.3 87.2 170.4 83.4C168.5 79.6 166.8 76.2 165.2 72.2C164.954 71.7643 164.587 71.4094 164.143 71.1786C163.699 70.9477 163.198 70.851 162.7 70.9H144.4C144.152 70.893 143.905 70.9435 143.68 71.0475C143.454 71.1516 143.256 71.3065 143.1 71.5C142.943 71.7424 142.869 72.0285 142.887 72.3165C142.905 72.6044 143.015 72.879 143.2 73.1L167.4 118.1L142.6 162.8C142.454 162.999 142.351 163.226 142.299 163.468C142.248 163.709 142.248 163.959 142.3 164.2C142.305 164.365 142.343 164.527 142.411 164.676C142.48 164.826 142.577 164.961 142.698 165.073C142.819 165.184 142.961 165.271 143.116 165.327C143.271 165.383 143.435 165.408 143.6 165.4H161.3C161.833 165.428 162.36 165.276 162.796 164.967C163.231 164.659 163.55 164.212 163.7 163.7C165.6 159.9 167.5 156.7 169.3 152.9C171.1 149.1 172.9 145.3 174.8 141.5C176.4 138.1 178.1 134.6 179.6 131.2C181.3 134.7 183 138.2 184.8 141.7C186.7 145.5 188.6 149.3 190.3 153C192 156.7 193.8 159.9 195.5 163.6C195.827 164.178 196.31 164.653 196.893 164.971C197.476 165.289 198.137 165.438 198.8 165.4H217.3C217.624 165.406 217.941 165.299 218.196 165.099C218.451 164.899 218.629 164.616 218.7 164.3C218.824 164.052 218.889 163.778 218.889 163.5C218.889 163.222 218.824 162.948 218.7 162.7Z" fill="#31A8FF"/>
</g>
<defs>
<clipPath id="clip0_5_61">
<rect width="240" height="234" fill="white"/>
</clipPath>
</defs>
</svg>
