<svg width="240" height="234" viewBox="0 0 240 234" fill="none" xmlns="http://www.w3.org/2000/svg">
<g clip-path="url(#clip0_5_57)">
<path d="M42.5 1.88608e-05H197.5C203.083 -0.00524284 208.612 1.09046 213.77 3.22442C218.929 5.35838 223.616 8.48871 227.564 12.4362C231.511 16.3838 234.642 21.071 236.776 26.2297C238.91 31.3885 240.005 36.9174 240 42.5V191.5C240.005 197.083 238.91 202.612 236.776 207.77C234.642 212.929 231.511 217.616 227.564 221.564C223.616 225.511 218.929 228.642 213.77 230.776C208.612 232.91 203.083 234.005 197.5 234H42.5C36.9174 234.005 31.3885 232.91 26.2297 230.776C21.071 228.642 16.3838 225.511 12.4362 221.564C8.48871 217.616 5.35838 212.929 3.22442 207.77C1.09046 202.612 -0.00524284 197.083 1.88608e-05 191.5V42.5C-0.00524284 36.9174 1.09046 31.3885 3.22442 26.2297C5.35838 21.071 8.48871 16.3838 12.4362 12.4362C16.3838 8.48871 21.071 5.35838 26.2297 3.22442C31.3885 1.09046 36.9174 -0.00524284 42.5 1.88608e-05Z" fill="#00005B"/>
<path d="M61.6 164.1V61.2C61.6 60.5 61.9 60.1 62.6 60.1C64.3 60.1 66.4 60.1 68.7 60C71 59.9 73.6 59.9 76.3 59.8C79 59.7 81.9 59.7 85 59.6C88.1 59.5 91.1 59.5 94.1 59.5C102.3 59.5 109.1 60.5 114.7 62.6C119.72 64.3048 124.297 67.1059 128.1 70.8C131.322 74.0328 133.812 77.9207 135.4 82.2C136.914 86.3674 137.692 90.7662 137.7 95.2C137.7 103.8 135.7 110.9 131.7 116.5C127.681 122.092 122.071 126.344 115.6 128.7C108.388 131.302 100.767 132.589 93.1 132.5C90.7 132.5 89.1 132.5 88.1 132.4C87.1 132.3 85.7 132.3 83.8 132.3V164C83.8223 164.165 83.8113 164.332 83.7678 164.492C83.7242 164.652 83.6489 164.802 83.5463 164.933C83.4437 165.063 83.3159 165.172 83.1705 165.252C83.0252 165.333 82.8651 165.383 82.7 165.4H62.7C61.9 165.4 61.6 165 61.6 164.1ZM83.8 79.4V112.7C85.2 112.8 86.5 112.9 87.7 112.9H93C96.8934 112.972 100.774 112.432 104.5 111.3C107.688 110.363 110.536 108.522 112.7 106C114.8 103.5 115.8 100.1 115.8 95.7C115.894 92.5751 115.096 89.488 113.5 86.8C111.833 84.2036 109.38 82.2068 106.5 81.1C102.746 79.6297 98.7289 78.9488 94.7 79.1C92.1 79.1 89.8 79.1 87.9 79.2C86.5305 79.1803 85.1611 79.2471 83.8 79.4Z" fill="#9999FF"/>
<path d="M146.7 144.6V52.5C146.7 51.6 147.2 51.2 148.1 51.2H167.6C168.6 51.2 169 51.6 169 52.5V142.7C169 145 169.4 146.6 170.2 147.5C171 148.5 172.4 148.9 174.3 148.9C174.769 148.92 175.239 148.887 175.7 148.8C176 148.7 176.5 148.7 177.1 148.6C177.273 148.584 177.446 148.619 177.6 148.7C177.774 149.003 177.844 149.354 177.8 149.7V163.5C177.816 163.936 177.783 164.372 177.7 164.8C177.539 165.071 177.293 165.282 177 165.4C175.706 165.874 174.365 166.209 173 166.4C170.979 166.682 168.94 166.816 166.9 166.8C163.341 166.868 159.805 166.222 156.5 164.9C153.352 163.586 150.791 161.168 149.3 158.1C147.6 155.1 146.7 150.5 146.7 144.6Z" fill="#9999FF"/>
</g>
<defs>
<clipPath id="clip0_5_57">
<rect width="240" height="234" fill="white"/>
</clipPath>
</defs>
</svg>
